<?xml version="1.0" encoding="utf-8"?>
<!-- Generator: Adobe Illustrator 21.1.0, SVG Export Plug-In . SVG Version: 6.00 Build 0)  -->
<svg version="1.1" xmlns="http://www.w3.org/2000/svg" xmlns:xlink="http://www.w3.org/1999/xlink" x="0px" y="0px"
	 viewBox="0 0 50 50" style="enable-background:new 0 0 50 50;" xml:space="preserve">
<style type="text/css">
	.st0{fill:#DADEDE;}
	.st1{fill:#D2D4D4;}
	.st2{fill:#8A8B8D;}
	.st3{fill:#858687;}
	.st4{fill:#5F6464;}
	.st5{fill:#949694;}
	.st6{fill:#555A59;}
	.st7{fill:#A7AAAC;}
	.st8{fill:#A9ACAE;}
	.st9{fill:#CCD1D2;}
	.st10{fill:#2A2D2D;}
	.st11{fill:#AFB5B6;}
	.st12{fill:#C9CCCD;}
	.st13{fill:#A2A4A4;}
	.st14{fill:#B2B4B4;}
	.st15{fill:#989A99;}
	.st16{fill:#252726;}
	.st17{fill:#202223;}
	.st18{fill:#3D3F3D;}
	.st19{fill:#0B0D0C;}
	.st20{fill:#868685;}
	.st21{fill:#1D2122;}
	.st22{fill:#5B5F62;}
	.st23{fill:#35383B;}
	.st24{fill:#0E1112;}
	.st25{fill:#1C1E20;}
	.st26{fill:#636567;}
	.st27{fill:#838381;}
	.st28{fill:#646667;}
	.st29{fill:#707273;}
	.st30{fill:#898B8C;}
	.st31{fill:#7C7D7F;}
	.st32{fill:#5D5F60;}
	.st33{fill:#67696B;}
	.st34{fill:#9C9E9F;}
	.st35{fill:#0A0C0B;}
	.st36{fill:#161819;}
	.st37{fill:#ABAEAF;}
	.st38{fill:#616465;}
	.st39{fill:#6E6F72;}
	.st40{fill:#272A2B;}
	.st41{fill:#8B8C8A;}
	.st42{fill:#232422;}
	.st43{fill:#7C7E7F;}
	.st44{fill:#7B7C7D;}
	.st45{fill:#5F6162;}
	.st46{fill:#616364;}
	.st47{fill:#939596;}
	.st48{fill:#6C6D6E;}
	.st49{fill:#8B8C8E;}
	.st50{fill:#929495;}
	.st51{fill:#626364;}
	.st52{fill:#767778;}
	.st53{fill:#646566;}
	.st54{fill:#1F2223;}
	.st55{fill:#838482;}
	.st56{fill:#979A9A;}
	.st57{fill:#454544;}
	.st58{fill:#949596;}
	.st59{fill:#818384;}
</style>
<g id="alpha">
</g>
<g id="Layer_1">
	<g>
		<path class="st0" d="M34.2,24.8c0.2-0.1,0.4,0,0.5,0c0,0,0.1,0,0.1-0.1c0.6-0.1,1.2-0.2,1.8-0.3c0,0,0,0,0-0.1
			c-0.2-0.2-0.5-0.1-0.7,0c-1.2,0.2-2.4,0.4-3.7,0.7c-0.2,0-0.5,0-0.6,0.2c0,0.1,0,0.1,0,0.2C32.5,25.3,33.5,25,34.2,24.8z"/>
		<path class="st0" d="M47.1,20.2c-0.9-0.4-1.7-1-2.6-1.4c-0.2-0.1-0.3-0.2-0.4-0.3c-0.4-0.2-0.8-0.3-1.2-0.5
			c-0.2-0.1-0.3-0.2-0.5-0.3c-0.1,0-0.2,0-0.2-0.1c-0.3-0.2-0.6-0.4-0.9-0.6c-0.1,0-0.2-0.1-0.2-0.1c0,0.1-0.1,0.1,0,0.3
			c0.1,0.2,0.4,0.3,0.6,0.4c0.5,0.2,1,0.5,1.5,0.8c0.8,0.4,1.7,0.8,2.5,1.3c0.3,0.1,0.5,0.2,0.8,0.4c0.1,0,0.1,0.1,0.2,0.1
			c0.5,0.3,0.9,0.5,1.4,0.7c0.1,0.1,0.3,0.1,0.4,0.2c0.4,0.2,0.7,0.5,1.1,0.6c0.1,0.1,0.2,0.1,0.2,0.3c0,0.1,0,0.1-0.1,0.1
			c0.1-0.1,0.2-0.1,0.3-0.2C49.2,21,48,20.7,47.1,20.2z"/>
		<path class="st0" d="M46.4,22.6c0.2,0,0.3,0,0.5,0c0.1,0,0.2-0.1,0.3-0.1c0.5-0.1,1-0.2,1.5-0.3c-0.2,0-0.5,0-0.7-0.1
			c-0.2,0-0.4,0-0.5,0c-1,0.2-1.9,0.3-2.9,0.5c-0.1,0-0.1,0-0.2,0.1c-1.7,0.3-3.3,0.6-5,0.9c-0.2,0-0.4,0-0.5,0.2c0,0,0,0,0,0
			C41.4,23.6,43.9,23.1,46.4,22.6z"/>
		<path class="st1" d="M41.1,16.9c-0.7-0.2-1.5-0.4-1.8-0.9c-0.2-0.1-0.5-0.1-0.8-0.1c-0.1,0-0.3,0-0.4,0c0,0,0,0,0,0
			c-0.6,0.1-1.1,0.4-1.7,0.5c-0.5,0.1-1.1,0.2-1.6,0.2c-0.8,0.1-1.7,0.4-2.5,0.3c-0.1,0-0.1,0.1-0.2,0.1c-0.4,0.1-0.8,0.2-1.3,0.2
			c-0.3,0-0.7,0.1-1,0.1c0,0,0,0,0,0c-0.1,0-0.2,0-0.3,0c-0.3,0-0.5-0.1-0.7-0.3c0,0,0,0,0,0c-0.2,0-0.4-0.2-0.5-0.3
			c-0.1-0.1-0.2-0.1-0.2-0.2c-0.8-0.3-1.5-0.8-2.1-1.3c-0.1,0-0.2-0.1-0.3-0.1c0,0.1,0.1,0.1,0.2,0.2c0.4,0.4,0.9,0.6,1.4,0.9
			c0.5,0.3,0.9,0.5,1.4,0.9c0.3,0.2,0.7,0.5,1.1,0.4c0.1,0,0.2,0,0.4,0c1-0.1,1.9-0.3,2.9-0.5c1.8-0.2,3.6-0.4,5.4-1
			c0.2-0.1,0.4,0,0.6,0.1c0.5,0.4,1.1,0.7,1.6,0.9c0.2,0.1,0.3,0.2,0.5,0.1C41.1,17.1,41.1,17,41.1,16.9z"/>
		<path class="st2" d="M43.2,21.9c-0.2-0.1-0.3-0.2-0.4-0.4c-0.1-0.3-0.3-0.4-0.5-0.5c-0.3-0.1-0.6-0.3-0.8-0.5
			c-0.1-0.1-0.2-0.2-0.3-0.2c-0.3-0.1-0.6-0.3-0.9-0.5c-0.4-0.3-0.1-0.6-0.1-0.9c0-0.3,0.3-0.2,0.5-0.2c0.6,0,1.3-0.1,1.9-0.1
			c0.2,0,0.4,0,0.6-0.2c-0.7-0.4-1.3-0.7-2-1.1c-0.7-0.3-1.4-0.7-2.1-1.1c-0.1-0.1-0.2-0.1-0.3-0.1c0,0,0,0,0,0c-0.1,0-0.2,0-0.3,0
			c-0.7,0.2-1.3,0.3-2,0.5c-0.8,0.2-1.5,0.3-2.3,0.3c-0.4,0.1-0.8,0.1-1.2,0.2c-0.9,0.2-1.9,0.4-2.8,0.5c-0.1,0-0.2,0-0.2,0
			c-0.1,0-0.2,0-0.2,0.1c0,0.1,0.1,0.2,0.2,0.3c0.1,0.1,0.3,0.2,0.5,0.3c0.3,0.2,0.7,0.4,1,0.7c0.2,0.2,0.5,0.3,0.8,0.5
			c0.1,0.1,0.2,0.1,0.3,0.1c0.3-0.2,0.5,0,0.6,0.2c0.3,0.8,1,1.4,1.6,2c0.4,0.4,1,0.7,1.4,1.3c0.1,0.2,0.3,0.2,0.4,0.2
			c-0.5-0.1-1.1-0.1-1.6,0c-0.1,0-0.3,0-0.3,0.2c0.1,0.1,0.2,0.1,0.4,0.1c1.3,0.1,2.5,0,3.8-0.2c1.2-0.2,2.3-0.4,3.5-0.7
			c0.5-0.1,1-0.1,1.5-0.3C43.5,22,43.3,22,43.2,21.9z"/>
		<path class="st3" d="M43.4,22.2c-0.4-0.1-0.8-0.4-0.9-0.9c0-0.1-0.2-0.1-0.3-0.1c-0.4-0.1-0.7-0.2-0.9-0.6c0-0.1-0.1-0.2-0.2-0.2
			c-0.6,0-0.8-0.5-1.2-0.8c-0.1,0-0.1-0.1-0.1-0.1c0.2-0.3,0.1-0.6,0.2-0.9c0.1-0.2,0.4-0.2,0.6-0.2c0.8,0,1.6-0.1,2.5-0.2
			c0.8,0.5,1.7,0.8,2.5,1.3c0,0.2-0.2,0.2-0.3,0.2c-0.2,0.1-0.5,0.1-0.7,0.3c0.3,0.1,0.5,0,0.7-0.1c0.4-0.2,0.7-0.2,1.1-0.1
			c0.1,0,0.1,0.1,0.2,0.1c0.3,0.3-0.1,0.2-0.2,0.4c0.5,0.1,1.1,0.1,1.6,0.3c0.1,0.1,0.3,0.1,0.4,0.2c0,0,0,0.1,0,0.1
			c-0.1,0.2-0.3,0.2-0.4,0.2c-0.2,0-0.4,0.1-0.6,0.2c-1.2,0.3-2.3,0.6-3.5,0.8C43.7,22.3,43.5,22.3,43.4,22.2z"/>
		<path class="st4" d="M45.2,22.4c-0.1,0-0.2,0-0.2,0c-1,0.2-2,0.4-3,0.6c-1.8,0.3-3.6,0.6-5.4,1c-1.6,0.3-3.2,0.6-4.9,0.9
			C31.1,25,30.5,25,30,25.2c-0.2,0.1-0.4,0.2-0.3,0.4c0,0,0.1,0,0.1,0c0.2,0,0.4,0,0.6-0.1c0.2,0,0.3,0,0.5-0.1
			c0.3-0.1,0.5-0.1,0.8-0.2c0.8-0.2,1.7-0.3,2.6-0.5c0,0,0,0,0.1,0c0,0,0,0,0.1,0c0.8-0.1,1.5-0.3,2.3-0.4c0,0,0,0,0,0
			c0.1,0,0.1,0,0.2,0c0.2,0,0.4-0.1,0.5-0.1c0.2-0.1,0.3-0.1,0.5-0.1c0.3-0.1,0.6-0.2,0.9-0.2c0.5-0.2,1.1-0.2,1.6-0.3
			c1.4-0.3,2.7-0.4,4.1-0.8c0.1-0.1,0.4-0.1,0.5-0.2C45.2,22.7,45.4,22.6,45.2,22.4z"/>
		<path class="st5" d="M48.4,21C48.4,21,48.4,20.9,48.4,21c0.3-0.1,0.4,0.2,0.6,0.3c0.2,0,0.3,0.2,0.5,0.3c-0.1,0.2-0.4,0.1-0.6,0.2
			c-1.1,0.3-2.3,0.5-3.4,0.7c-2.8,0.5-5.6,1-8.4,1.5c-1,0.2-2,0.4-3.1,0.5c-0.1,0-0.1,0-0.2,0c-0.1,0-0.1-0.1-0.1-0.1
			c0-0.1,0.1-0.1,0.1-0.2c0.2-0.1,0.5-0.1,0.8-0.2c0.2,0,0.3-0.1,0.5-0.2c0.3-0.2,0.7-0.1,1.1-0.2c1.7-0.3,3.4-0.6,5-0.9
			c2.2-0.4,4.4-0.8,6.6-1.3C48.1,21.5,48.3,21.4,48.4,21z"/>
		<path class="st6" d="M49.7,21.6c-0.1,0-0.1,0-0.2-0.1c-0.2,0-0.4,0-0.6,0.1c0,0.1-0.1,0.1-0.1,0.1c-0.8,0.2-1.6,0.3-2.3,0.5
			c-0.4,0.1-0.8,0-1.2,0.3c-0.2,0.2-0.5,0.2-0.7,0.2c-0.1,0-0.2,0-0.1,0.1c0,0.1,0.1,0.1,0.2,0.1c0.1,0,0.2,0,0.3,0
			c1-0.2,2.1-0.4,3.2-0.5c0.3,0,0.6,0,0.8-0.1c0,0,0,0,0,0c0.2,0,0.6-0.2,0.8-0.3c0,0,0.1-0.1,0.1-0.1c0,0,0-0.1,0-0.1
			C49.7,21.7,49.7,21.7,49.7,21.6z"/>
		<path class="st7" d="M46.4,20c-0.6,0-1.1,0.3-1.6,0.3c-0.2,0-0.4,0.1-0.4-0.1c0-0.2,0.2-0.2,0.4-0.3c0.3-0.2,0.6-0.1,0.9-0.3
			C45.9,19.6,46.1,19.8,46.4,20z"/>
		<path class="st8" d="M48,20.7c-0.6-0.1-1.1-0.1-1.7-0.2c-0.1,0-0.2,0-0.2-0.1c0-0.1,0.1-0.1,0.2-0.2c0.1-0.1,0.4,0,0.3-0.2
			C47,20.3,47.5,20.5,48,20.7z"/>
		<path class="st9" d="M18,27.2c-1,0.2-2,0.4-3.1,0.6c-0.9,0.2-1.8,0.4-2.7,0.5c-0.3,0-0.6,0.2-0.9,0.1c-0.1,0-0.3,0-0.4,0
			c-1.6,0.3-3.2,0.7-4.8,1c-0.4,0.1-0.7,0.1-1.1,0.2c-0.2,0-0.3-0.2-0.4-0.4c-0.5-1.1-1.1-2.1-1.6-3.2c-0.1-0.2-0.2-0.4-0.3-0.5
			c-0.1-0.1-0.2-0.2-0.2-0.3c-0.1-0.1-0.1-0.2-0.2-0.2c0.4,0.6,0.5,1.4,0.9,2c0.4,0.8,1,1.6,1.4,2.4c0.1,0.2,0.1,0.3,0.1,0.4
			c0,0,0,0,0,0c0.1,0,0.3-0.1,0.5-0.1c0.1,0,0.2,0,0.3,0c1.5-0.7,3.6-0.9,5.2-1.1c2.7-0.5,5.4-1.1,8-1.6c0,0,0,0,0,0
			C18.5,27.2,18.3,27.2,18,27.2z"/>
		<path class="st10" d="M48.9,21.6c-3.7,0.8-7.3,1.4-11,2.1c-1.3,0.2-2.6,0.4-3.9,0.7c-0.4,0-0.9,0-1.3,0.1
			c-0.3,0.1-0.6,0.1-0.9,0.2c-0.2,0-0.4,0-0.6-0.1c-0.1-0.1-0.3,0-0.4,0c-0.3,0.1-0.5,0.2-0.8,0.4c0,0.3-0.1,0-0.2,0
			c-0.1,0-0.1,0-0.2,0c-0.2-0.1-0.2-0.4-0.2-0.6c0-0.2,0.1-0.4-0.2-0.5c-0.2,0.3-0.3,0.6-0.5,1c-0.1,0-0.2-0.1-0.3-0.1
			c-0.8-0.1-1.5,0.2-2.2,0.3c-1.6,0.2-3.1,0.7-4.7,0.9c-0.8,0.1-1.6,0.5-2.4,0.6c-0.6,0.1-1.2,0.3-1.8,0.5c-0.1,0-0.2,0.1-0.3,0.1
			c-0.8,0-1.4,0.4-2.1,0.6c-0.1,0-0.3,0-0.3,0.3c0.3,0.2,0.6-0.1,0.9-0.1c0.7-0.1,1.5-0.3,2.2-0.4c0.3-0.1,0.6-0.1,0.9-0.2
			c0.1-0.1,0.3-0.2,0.5-0.3c2.7-0.4,5.5-1.6,8.2-1.6c0.1,0,0.1,0,0.2,0c0.6-0.1,1.1-0.1,1.6,0.3c0.2,0,0.3,0,0.5,0.1
			c0-0.3,0.3-0.3,0.5-0.4c0.9-0.1,1.8-0.3,2.7-0.5c2.5-0.5,4.9-0.9,7.4-1.4c1.6-0.3,3.3-0.6,4.9-0.9c0.9-0.2,1.9-0.4,2.9-0.6
			c0.4-0.1,0.9-0.2,1-0.3C49.1,21.6,49,21.6,48.9,21.6z"/>
		<path class="st11" d="M18.7,27.1c0,0,0.1-0.1,0.1-0.1c-0.2,0-0.4,0.1-0.6,0.1c-1.2,0.2-2.4,0.5-3.6,0.7c-0.1-0.1-0.3-0.1-0.4,0
			c-0.9,0.2-1.7,0.4-2.6,0.6c-0.1,0-0.3,0.1-0.4,0.3c0,0,0,0,0.1,0C13.8,28.2,16.3,27.7,18.7,27.1z"/>
		<path class="st12" d="M23.7,13.8C23.7,13.8,23.7,13.8,23.7,13.8c-0.7-0.3-1.4-0.3-2.1-0.2c-0.5,0.1-1,0.3-1.4,0.6c0,0,0,0,0,0
			c0.1,0,0.1,0,0.2,0c0.3-0.1,0.6-0.2,0.9-0.3c0.1-0.1,0.3-0.1,0.5-0.1c0.3-0.1,0.7,0,1,0c0.3,0,0.6,0.1,0.9,0.3
			c0.6,0.4,1.3,0.8,1.9,1.3c0.1,0.1,0.2,0.2,0.4,0.1c0,0,0-0.1-0.1-0.1C25.1,15,24.3,14.4,23.7,13.8z"/>
		<path class="st13" d="M30.5,18.3c-0.5-0.3-1-0.6-1.5-0.9c-0.6-0.4-1.2-0.7-1.8-1.1c-0.4-0.3-0.9-0.6-1.3-0.9
			c-0.1-0.1-0.2-0.1-0.3-0.2c-0.6-0.2-1.2-0.7-1.7-1.1c-0.1-0.1-0.2-0.1-0.3-0.2c-0.1-0.1-0.2-0.1-0.3-0.1c-0.2,0-0.4-0.1-0.6-0.1
			c-0.1,0.2,0.1,0.3,0.2,0.4c0.4,0.2,0.7,0.5,1.1,0.7c2.1,1.4,4.2,2.6,6.2,4.1c0.1,0.1,0.3,0.1,0.4,0C30.8,18.5,30.7,18.4,30.5,18.3
			z"/>
		<path class="st14" d="M30.7,18.7c-0.4-0.5-0.9-0.8-1.4-1.1c-0.7-0.4-1.4-0.8-2-1.3c0.5,0.1,0.9,0.5,1.3,0.7
			c0.5,0.4,0.9,0.6,1.5,0.5c-0.1,0.1-0.3,0-0.4,0.1c0.5,0.4,1,0.7,1.5,1c0,0,0.3,0,0.1,0.2C31,18.9,30.8,18.8,30.7,18.7z"/>
		<path class="st15" d="M32.3,19.4c0.2-0.3,0.5-0.3,0.6,0c0.2,0.8,0.9,1.3,1.4,1.9c0.3,0.3,0.6,0.6,1,0.8c0.2,0.1,0.3,0.2,0.4,0.4
			c0.2,0.3,0.4,0.6,0.8,0.7c-0.7,0-1.5,0-2.2,0c-0.3,0.2-0.6,0.2-0.9,0.1c-0.5,0-1.1,0-1.6,0c-0.2,0-0.4,0.1-0.6-0.2
			c0-0.2,0.1-0.3,0.2-0.4c0.6-0.4,1-1,1.2-1.7c0.1-0.3,0.1-0.6,0-0.9C32.5,20,32.2,19.7,32.3,19.4z"/>
		<path class="st16" d="M31.7,23.2c0.8,0,1.7,0,2.5,0c0.8,0.1,1.6,0.1,2.4,0c1.7-0.1,3.3-0.5,5-0.8c0.6-0.1,1.2-0.1,1.8-0.3
			c1-0.1,1.9-0.4,2.9-0.6c0.4-0.1,0.7-0.2,1.1-0.3c0.2,0,0.3,0,0.4-0.1c0.1,0,0.3,0,0.3,0.1c0.1,0.2-0.2,0.1-0.2,0.2
			c-3.8,0.8-7.5,1.5-11.3,2.1c-0.1,0-0.3,0-0.4,0c-0.2-0.1-0.4,0-0.6,0c-0.7,0.2-1.3,0.1-2,0.1c-0.7,0-1.3,0.1-2,0.1
			c-0.1,0-0.3,0-0.4,0c-0.1-0.1-0.2-0.1-0.1-0.3c0.1-0.2,0.2-0.2,0.4-0.2c0.5,0,0.9,0,1.4,0c-0.3,0-0.7,0.1-1.1-0.1
			C31.7,23.3,31.7,23.3,31.7,23.2z"/>
		<path class="st17" d="M32.3,19.4c0.2,0.2,0.3,0.5,0.4,0.8c0.1,0.3,0.1,0.6,0,1c-0.2,0.8-0.7,1.4-1.4,1.9c-0.1,0.1-0.2,0.2-0.3,0
			c0-0.1,0.1-0.2,0.1-0.3c0-0.1,0-0.1,0.1-0.2c0.8-0.2,1.3-1,1.4-1.7c0.1-1-1-1.9-1.8-1.8c-0.3,0-0.5,0.1-0.8,0.1
			c0.4,0.4,0.8,0.6,1.2,0.9c0.2,0.1,0.5,0.2,0.3,0.5c-0.1,0.2-0.4,0-0.6-0.1c-0.5-0.3-1-0.6-1.6-0.5c-0.4,0.1-0.5,0.1-0.5,0.6
			c0,0.3-0.1,0.4-0.4,0.3c-0.1,0-0.2-0.1-0.2-0.1c-0.2-0.2-0.5-0.2-0.8-0.1c-0.2-0.1-0.4,0-0.7,0.1c-0.1,0-0.3,0.1-0.4-0.1
			c0.1-0.4,0.5-0.4,0.8-0.6c0.7-0.4,1.3-0.7,2.1-1c0.2-0.1,0.4-0.1,0.6-0.1c0.2,0,0.3,0,0.5,0c0.2,0,0.3,0,0.5,0
			c0.2,0,0.4,0.1,0.5,0.1C31.6,18.9,32,19.1,32.3,19.4z"/>
		<path class="st18" d="M47.9,21.5c0-0.1,0.2,0,0.2-0.2c0-0.1-0.1-0.1-0.2-0.1c-0.1,0-0.3,0.1-0.4,0c0.3-0.2,0.7-0.1,1-0.3
			c0,0,0.1,0,0.1,0.1C48.4,21.3,48.3,21.6,47.9,21.5z"/>
		<path class="st19" d="M31.2,23.8c0.9-0.1,1.7-0.2,2.6-0.2c0.7,0,1.4,0.1,2.1,0c0.1,0,0.3,0,0.4,0.1c-0.3,0.1-0.7,0.1-1,0.2
			c-0.9,0.3-1.8,0.3-2.7,0.5c-0.2,0-0.5,0.1-0.7,0.1c-0.3,0-0.4-0.2-0.7-0.3c0,0-0.1-0.1-0.1-0.1C30.9,23.9,31,23.8,31.2,23.8z"/>
		<path class="st20" d="M31.6,24.3c1.1-0.1,2.1-0.2,3.2-0.4c0.1,0,0.2,0,0.3,0c-0.4,0.4-0.9,0.2-1.3,0.4c0.1,0,0.1,0,0.2,0
			c-0.8,0.2-1.7,0.3-2.5,0.5c-0.2,0-0.3-0.2-0.4-0.2c0-0.1,0-0.2,0.1-0.2C31.4,24.2,31.5,24.3,31.6,24.3z"/>
		<path class="st21" d="M28.1,24.4c-0.5-0.1-1-0.1-1.6-0.2c-0.5,0-1,0.1-1.5-0.1c-0.2,0-0.3,0-0.5,0.1c-1.1,0.3-2.1,0.6-3.2,1
			c-2.5,0.7-4.9,1.4-7.4,2.1c-2.4,0.7-4.9,1.3-7.4,2c-0.2,0.1-0.4,0.1-0.6,0.2c-0.1,0-0.1,0.1,0,0.2c0,0,0.1,0,0.1,0c0,0,0,0,0,0
			c1.4-0.5,3-0.7,4.4-0.9c0.3-0.1,0.5-0.1,0.8-0.2c0.2,0,0.3-0.1,0.5-0.1c1-0.2,1.9-0.4,2.9-0.6c0.1-0.1,0.3-0.1,0.4-0.2
			c0.8-0.2,1.7-0.4,2.5-0.7c0.9-0.3,1.9-0.4,2.8-0.7c1.1-0.4,2.4-0.4,3.5-0.7c0.8-0.2,1.7-0.4,2.5-0.5c0.7-0.1,1.4-0.4,2.2-0.3
			C28.6,24.5,28.3,24.5,28.1,24.4z"/>
		<path class="st22" d="M25,24.3c-2.5,0.7-5.1,1.5-7.6,2.2c-2.8,0.8-5.6,1.6-8.5,2.3c-1,0.2-1.9,0.5-2.9,0.8c0,0,0,0,0,0
			c0,0,0,0,0.1,0.1c-0.4,0.1-0.7,0.2-1.1,0.2c-0.2-0.3,0.1-0.4,0.3-0.5c1.6-0.4,3.2-0.9,4.8-1.3c2-0.5,3.9-1.1,5.9-1.6
			c3.7-1,7.4-2.1,11.1-3.2c0.6-0.2,1.1-0.3,1.7-0.5c0.3-0.1,0.4,0,0.5,0.3c-0.1,0.2-0.3,0.2-0.4,0.3c-1,0.3-2,0.6-3,0.9
			C25.5,24.3,25.3,24.3,25,24.3z"/>
		<path class="st23" d="M5.2,29.2C5.2,29.2,5.1,29.2,5.2,29.2C5.1,29.1,5,29.1,5,29.1c-0.7-1.3-1.4-2.6-2.1-3.9
			c-0.1-0.2-0.3-0.4-0.3-0.7c-0.4-0.9-0.8-1.8-1.3-2.6c-0.1-0.2-0.2-0.2-0.4-0.2c-0.1,0-0.3,0.1-0.2,0.3c0,0.2,0.1,0.3,0.1,0.4
			c0.3,0.6,0.6,1.3,0.9,1.9c0.3,0.5,0.6,1,0.8,1.6c0.6,1.2,1.2,2.3,1.8,3.5c0.1,0.1,0.1,0.2,0.2,0.3c0.1,0.1,0.1,0.2,0.1,0.3
			c0,0.1,0.1,0.1,0.2,0c-0.1-0.3,0.2-0.3,0.3-0.4c0-0.1,0-0.1,0-0.2C5.3,29.3,5.2,29.2,5.2,29.2z"/>
		<path class="st24" d="M25,24.3c1.2-0.4,2.5-0.7,3.7-1.1c0.2,0,0.3-0.1,0.4-0.2c0.1,0,0.1,0,0.2,0.1c0,0.3,0.2,0.5,0,0.8
			c0,0.2,0,0.3-0.1,0.5c-0.2,0.2-0.3,0.5-0.1,0.8c-0.2-0.1-0.3-0.2-0.5-0.3c-0.3-0.4-0.8-0.2-1.2-0.3c-0.6-0.1-1.3-0.1-2-0.1
			C25.3,24.4,25.2,24.4,25,24.3z"/>
		<path class="st25" d="M31.6,24.3c-0.1,0-0.2,0.1-0.3,0.1c-0.5,0.1-0.8,0.4-1.3,0.6c0,0,0.2,0.1,0,0.1c-0.1,0-0.2-0.1-0.3-0.1
			c0,0-0.1-0.1-0.1-0.1c-0.1-0.6-0.2-1.2-0.2-1.8c0.3-0.2,0.5-0.2,0.8,0c0.1,0,0,0.2,0,0.1c0.3-0.2,0.6,0,0.9,0
			c0.2,0.1,0.4,0,0.6,0.1c0.4,0.2,0.8,0.1,1.3,0.1c-0.5-0.1-1.1,0.2-1.6,0.1c-0.1,0-0.3,0-0.2,0.2C31.1,23.9,31,23.9,31,24
			c-0.2,0.3-0.6,0.2-0.8,0.4c0.2-0.1,0.6-0.1,0.8-0.4C31.3,24,31.4,24.3,31.6,24.3z"/>
		<path class="st22" d="M29.5,23c0.1,0.7,0.2,1.3,0.2,2c0,0.1,0,0.2-0.1,0.4c-0.2-0.2-0.2-0.5-0.2-0.8c0-0.2,0.1-0.5-0.1-0.7
			c0-0.3,0-0.5-0.1-0.8C29.3,23,29.3,22.9,29.5,23C29.4,23,29.5,23,29.5,23z"/>
		<path class="st26" d="M30,25c0.4-0.3,0.7-0.6,1.3-0.6c0,0.1-0.1,0.1-0.1,0.2c-0.3,0-0.5,0.2-0.7,0.3C30.3,24.9,30.2,25,30,25z"/>
		<path class="st27" d="M8.7,19.9C8.5,19.9,8.3,20,8.1,20c0,0.1,0,0.1-0.1,0c-1.5,0.4-3,0.6-4.5,0.9c-0.1,0-0.2,0.1-0.2,0.1
			c0,0,0,0,0,0c-0.3,0.1-0.6,0.2-1,0.2c-0.1,0-0.3-0.1-0.4,0.1c-0.2,0-0.4,0.1-0.6,0.1C1.2,21.6,1,21.5,1,21.7c0.1,0,0.2,0,0.3,0.2
			c0.4,0.9,0.9,1.7,1.3,2.6c0.4,1,0.9,1.9,1.4,2.8c0.1,0.2,0.2,0.4,0.4,0.6c0.3,0.1,0.4,0.2,0.3,0.6c0.1,0.3,0.2,0.5,0.4,0.7
			c0,0,0,0,0.1,0c0.4,0,0.7-0.1,0.8-0.5c0.1-0.3-0.3-0.4-0.6-0.5c0,0-0.1,0-0.1-0.1c0-0.1-0.1-0.2,0.1-0.2c0.4-0.1,0.5-0.3,0.1-0.6
			c-0.4-0.3-0.5-0.6-0.5-1c0.1,0.1,0.2,0.2,0.3,0.1c0.2-0.1,0.1-0.2,0.1-0.3c0-0.2-0.1-0.5-0.1-0.7c-0.1-0.2-0.1-0.4,0.1-0.5
			c0.1-0.1,0.2-0.2,0.2-0.3c-0.1-0.3-0.2-0.5,0.3-0.4c0.1,0,0.2,0,0.2-0.1c0.1-0.4,0.6-0.6,0.7-0.9c0.2-0.4,0.5-0.6,0.9-0.6
			c0.1,0,0.2-0.1,0.2-0.1C8,22.2,8.2,22.1,8.4,22c0.3-0.2,0.3-0.3,0.1-0.6c-0.2-0.2-0.2-0.3,0-0.5c0.2-0.2,0.3-0.4,0.3-0.6
			C8.8,20.1,8.8,20,8.7,19.9z"/>
		<path class="st28" d="M22.1,14.9c-0.4-0.3-0.9-0.5-1.3-0.8c-0.1-0.1-0.3-0.1-0.4,0c0,0-0.1,0-0.1,0c-0.3,0.2-0.6,0.3-0.8,0.5
			c0,0.2,0.1,0.2,0.2,0.3c0.6,0.3,0.7,0.7,0.2,1.2c-0.2,0.2-0.5,0.4-0.7,0.7c-0.6,0.8-1.5,1.3-2.2,1.9c-0.2,0.2-0.4,0.3-0.5-0.1
			c0-0.2-0.2-0.2-0.4-0.3c-0.2,0-0.3,0-0.5,0.1c-0.9,0.5-1.9,0.6-2.8,1c-0.1,0.1-0.2,0.1-0.4,0c-0.1-0.1-0.2-0.1-0.3,0
			c-0.1,0.1,0.1,0.2,0.1,0.3c0.1,0.1,0.2,0.2,0.3,0.2c0.1,0,0.1,0,0.2,0c0.8-0.4,1.7-0.5,2.5-0.9c0.1-0.1,0.3-0.1,0.4,0
			c0.1,0.1,0,0.2-0.1,0.3c-0.1,0.1-0.2,0.3-0.3,0.4C15,20,14.9,20.1,15,20.2c0.2,0.1,0.4-0.1,0.6-0.1c0.4-0.2,0.8-0.3,1.2-0.1
			c0.2,0,0.5,0,0.5-0.3c0-0.4,0.2-0.4,0.4-0.5c0.2-0.1,0.4-0.2,0.6-0.4c0.3-0.3,0.6-0.6,0.9-0.9c0.8-0.8,1.8-1.6,2.8-2.1
			C22.5,15.5,22.6,15.3,22.1,14.9z"/>
		<path class="st29" d="M16.9,19.9c0.2-0.1,0.6,0,0.3-0.4c-0.1-0.2,0.1-0.2,0.2-0.3c1-0.3,1.5-1.2,2.2-1.8c0.8-0.7,1.6-1.4,2.6-1.8
			c0.2-0.1,0.3-0.2,0.1-0.3c-0.6-0.4-1.2-0.8-1.9-1.1c0.3-0.2,0.5-0.3,0.9-0.3c0.1,0,0.2,0,0.2,0c0.5,0.4,1.1,0.7,1.7,1.1
			c0.5,0.3,1.1,0.6,1.6,1c0.1,0.1,0.4,0.3,0.2,0.5c-0.1,0.2-0.3,0.1-0.5,0.1c-0.7-0.1-1.5-0.4-2.2-0.2c-0.5,0.1-0.9,0.3-1.3,0.6
			c-0.2,0.2-0.5,0.3-0.7,0.5c-0.5,0.3-0.9,0.7-1.2,1.1c0,0,0,0.1-0.1,0.1c-0.3,0.2-0.5,0.5-0.8,0.7c0.4,0.1,0.2,0.4,0.2,0.6
			c0,0.1-0.1,0.2-0.2,0.2c-0.1,0.1-0.3,0.2-0.3,0.4c0.1,0.2,0.2,0.3,0.4,0.3c0.1,0,0.2,0,0.3,0.1c-0.3,0.3-0.6,0.4-1,0.4
			c-0.2-0.2-0.5,0.1-0.8-0.1c-0.1-0.2,0.1-0.2,0.2-0.3c0.1-0.1,0.2-0.1,0.2-0.2c0-0.1-0.2-0.1-0.3-0.1c-0.1,0-0.2,0-0.2,0
			c-0.1-0.2,0-0.3,0.1-0.4c0.1-0.1-0.1-0.1-0.1-0.2C16.7,19.9,16.8,19.8,16.9,19.9z"/>
		<path class="st30" d="M29.4,18c-0.8-0.4-1.6-1-2.3-1.5c-1.3-0.9-2.7-1.7-4-2.6c-0.1-0.1-0.2-0.1-0.3-0.3c-0.3,0-0.6,0-1,0
			c0,0-0.1,0-0.1,0c0.2,0.2,0.5,0.3,0.7,0.5c1.3,0.8,2.5,1.6,3.8,2.4c1.1,0.7,2.2,1.4,3.2,2.2c0.1,0.1,0.2,0.1,0.4,0.1
			c0.2,0,0.3,0.1,0.5-0.1C30.1,18.3,29.7,18.1,29.4,18z"/>
		<path class="st31" d="M21.7,13.7c0.5,0,0.8,0.4,1.2,0.6c2.2,1.3,4.3,2.7,6.4,4.1c0.2,0.1,0.2,0.4,0.5,0.4
			c-0.2,0.1-0.4,0.1-0.6,0.2c-0.5-0.1-0.9-0.5-1.3-0.7c-0.2-0.2-0.5-0.3-0.7-0.4c-0.1-0.1-0.2-0.1-0.2-0.3c0.1-0.1,0.2-0.1,0.5,0
			c-1.5-0.9-2.9-1.9-4.3-2.7c-0.5-0.3-1.1-0.6-1.5-1c-0.1,0-0.2,0-0.2,0C21.4,13.7,21.5,13.7,21.7,13.7z"/>
		<path class="st12" d="M18.3,15.2c-0.1,0.2-0.3,0.3-0.5,0.4c-0.1,0.1-0.2,0.2-0.4,0.3c-1.2,0.5-2.2,1.3-3.4,1.8
			c-0.8,0.4-1.8,0.8-2.7,1.1C11.3,19,11.2,19,11,19.1c-0.7,0.3-1.5,0.5-2.3,0.7c0.2,0,0.4,0,0.6-0.1c0.6-0.2,1.3-0.3,1.9-0.5
			c0.1,0,0.3-0.1,0.4-0.2c0.9-0.5,1.8-0.9,2.8-1.3c1.4-0.6,2.7-1.4,3.9-2.2c0.1-0.1,0.3-0.2,0.3-0.4c0,0,0,0,0,0
			C18.5,15.2,18.3,15.2,18.3,15.2z"/>
		<path class="st32" d="M20.3,15.3c-0.1-0.2-0.2-0.6-0.6-0.5c-0.1,0-0.1-0.1-0.2-0.2c-0.1,0.1-0.3,0.2-0.4,0.2
			c-0.1,0-0.2,0.1-0.3,0.2c0,0-0.1,0-0.1,0.1c-0.1,0.1-0.2,0.2-0.4,0.3c-0.3,0.2-0.5,0.4-0.8,0.5c0,0,0,0,0,0c0,0,0,0,0,0
			c-1,0.6-2.1,1.2-3.2,1.7c-0.1,0-0.1,0.1-0.2,0.1c-0.5,0.3-1.2,0.6-1.8,0.8c-0.2,0.1-0.5,0.2-0.7,0.4c-0.1,0.1-0.2,0.2-0.1,0.3
			c0.3,0.4,0.6,0.9,1.1,1.2c0.1,0.1,0.3,0.1,0.3-0.1c0-0.2-0.2-0.4-0.4-0.5c-0.2-0.1-0.3-0.2-0.4-0.5c0.2,0,0.3,0.3,0.6,0.2
			c0.8-0.4,1.6-0.6,2.4-0.9c0.2-0.1,0.4-0.3,0.7-0.3c0.5-0.1,0.5-0.1,0.6,0.4c0,0.1,0,0.3,0.2,0.2c0.2-0.1,0.5-0.3,0.7-0.4
			c1-0.8,1.9-1.6,2.8-2.5C20.3,15.9,20.4,15.6,20.3,15.3z"/>
		<path class="st33" d="M31.7,23.3c-0.6,0.1-1.3-0.2-2,0.1c0.1-0.3,0.4-0.2,0.5-0.3c0.2-0.2,0.4-0.2,0.7-0.1
			c0.1,0.1,0.2,0.1,0.3,0.1C31.3,23.3,31.6,23.2,31.7,23.3C31.7,23.2,31.7,23.3,31.7,23.3z"/>
		<path class="st2" d="M32.7,21.1c0-0.3,0-0.6,0-1C32.8,20.5,32.8,20.8,32.7,21.1z"/>
		<path class="st34" d="M26.9,17.5c0.3,0.3,0.7,0.3,1,0.6c-0.2,0.1-0.3,0-0.4,0c-0.6-0.2-1.2-0.3-1.9-0.4c-0.3,0-0.7-0.1-0.8,0.2
			c-0.1,0.3,0.2,0.5,0.5,0.7c0.3,0.3,0.8,0.4,1.1,0.6c0.3,0.1,0.6,0.3,0.7,0.7c-0.3,0.2-0.5,0.4-0.8,0.5c0,0.1,0,0.1-0.1,0.1
			c-0.1,0.1-0.3,0.2-0.4,0.3c-1.7,1.1-3.3,2.3-5.1,3.1c-0.6,0.3-1.3,0.6-1.9,0.9c-0.1,0.1-0.3,0.1-0.5,0.1C18.2,25,18,25,17.8,25
			c-0.1,0-0.3-0.1-0.3-0.2c0-0.1,0.1-0.2,0.2-0.3c0.5-0.3,1-0.4,1.6-0.6c0.3-0.1,0.6-0.1,0.8-0.3c0.2-0.2,0.2-0.3,0-0.4
			c-0.3-0.3-1.3-0.3-1.6,0.2c-0.3,0.1-0.6,0.3-1,0.3c-0.3-0.1-0.3-0.3,0-0.4c0.3-0.2,0.6-0.3,0.7-0.6c0.1-0.1,0.2-0.1,0.3-0.1
			c0.1,0,0,0.1,0,0c0,0,0,0,0,0c-0.8,0.3-1.6,0.5-2.4,0.8c-0.2,0-0.4,0-0.6,0.1c0,0-0.1,0-0.1,0c-0.2-0.1-0.3-0.3-0.4-0.4
			c0-0.1-0.1-0.1,0-0.2c0.1-0.1,0.1-0.1,0.2,0c0.5,0.2,0.9,0.1,1.3-0.1c0.3-0.1,0.7-0.3,1-0.4c0.3-0.1,0.4-0.3,0.2-0.5
			c0-0.1,0.2-0.2,0.3-0.3c0.4-0.2,0.9-0.4,1.3-0.6c0,0,0.1,0,0.1-0.1c-0.2-0.5,0-0.9,0.4-1.1c0.7-0.5,1.1-1.2,1.7-1.7
			c0.4-0.4,0.9-0.7,1.3-1.1c0.3-0.3,0.7-0.4,1.1-0.3c0.3,0.1,0.7,0.1,1.1,0.1C25.7,16.9,26.3,17.2,26.9,17.5
			C26.9,17.5,26.9,17.5,26.9,17.5z"/>
		<path class="st35" d="M30.9,23c-0.2,0-0.5,0.1-0.7,0.1c-0.2-0.1-0.5,0-0.7-0.1c0,0,0,0,0,0c-0.5-0.3-1-0.6-1.4-1
			c-0.3-0.2-0.7-0.1-1-0.1c-0.2,0-0.4,0.1-0.6,0.1c-0.4,0-0.5-0.2-0.5-0.5c0.2-0.6,0.7-0.9,1.2-1.1c0.4-0.2,0.7-0.1,0.9,0.2
			c0.1,0.1,0.2,0.2,0.3,0.1c0.1,0,0-0.1,0-0.2c-0.1-0.5,0.1-0.7,0.7-0.7c0.7-0.1,1.2,0.3,1.7,0.6c0.1,0.1,0.2,0.2,0.4,0.2
			c-0.6-0.5-1.2-0.8-1.8-1.3c1.3-0.4,2-0.3,2.9,0.8c0.5,0.6,0.1,2-0.5,2.4c-0.1,0.1-0.2,0.1-0.2,0.2c-0.2,0.2-0.4,0.3-0.6,0.2
			c0,0-0.1,0-0.1,0c-0.5-0.4-1-0.7-1.8-0.8c0.3,0.3,0.6,0.5,0.8,0.7c0.4,0.1,0.8,0,1.1,0.2C31.1,22.9,31,23,30.9,23z"/>
		<path class="st36" d="M27.2,20.4c-0.2,0.3-0.5,0.3-0.7,0.6c-0.2,0.2-0.4,0.3-0.4,0.6c0,0.1-0.2,0.2,0,0.3c0.1,0.1,0.3,0.1,0.4,0.1
			c0.4-0.1,0.7-0.2,1.1-0.2c0.2,0,0.4,0.1,0.5,0.2c-0.5,0.4-1.1,0.5-1.6,0.6c-0.1,0-0.2,0-0.2-0.1c-0.1-0.1-0.2-0.1-0.3-0.2
			c-0.1,0-0.1-0.1-0.2-0.1c-0.6,0.3-1.2,0.6-1.7,1c-0.3,0.3-0.7,0.4-1.1,0.7c-0.7,0.4-1.4,0.6-2.1,0.9c-1.1,0.4-2.3,0.7-3.4,1
			c0,0-0.1,0-0.1,0c-0.2,0-0.2-0.1-0.1-0.3c0.1-0.1,0.2-0.2,0.3-0.3c0.2-0.2,0.4-0.3,0.7-0.2c2.5-1.1,4.9-2.4,7.1-4
			c0.1-0.1,0.2-0.2,0.4-0.2c0.2,0,0.3-0.1,0.4-0.3c0,0,0.1,0,0.1-0.1c0.2,0.1,0.4-0.1,0.6-0.1C27,20.3,27.1,20.2,27.2,20.4z"/>
		<path class="st37" d="M27.1,19.9c-0.4-0.5-1-0.6-1.5-0.9c-0.4-0.2-0.7-0.4-0.9-0.8c-0.2-0.4-0.2-0.5,0.2-0.6
			c0.3-0.1,0.7-0.1,1.1,0c0.7,0.1,1.3,0.3,1.9,0.5c0.4,0.2,0.9,0.4,1.3,0.8C28.4,19.2,27.8,19.5,27.1,19.9z"/>
		<path class="st38" d="M31.1,22.8c-0.4,0.1-0.8-0.1-1.3-0.1c-0.1-0.3,0.1-0.3,0.2-0.3c0.3-0.1,0.6,0.1,0.9,0.2c0,0,0.1,0,0.1,0
			C31,22.7,31,22.8,31.1,22.8z"/>
		<path class="st39" d="M31.1,24C31.1,24.1,31.1,24.1,31.1,24c-0.1,0.3-1,0.5-1.3,0.4C30.2,24.3,30.6,24.2,31.1,24
			C31,24,31,24,31.1,24z"/>
		<path class="st40" d="M26.4,22.5c0.6-0.2,1.1-0.4,1.7-0.6c0.5,0.3,1,0.6,1.3,1c-0.1,0-0.2,0.1-0.2,0.1c0,0-0.1-0.1-0.1-0.1
			c0-0.3-0.2-0.2-0.3-0.1c-0.9,0.3-1.8,0.5-2.7,0.8c-2.9,0.8-5.8,1.7-8.7,2.5c-1.5,0.4-3.1,0.9-4.6,1.3c-2.3,0.6-4.6,1.3-6.9,1.9
			c-0.2,0.1-0.4,0.1-0.7,0.1c-0.1,0-0.1-0.1-0.1-0.2c0.2-0.3,0.6-0.3,0.9-0.4c3.5-1,7-1.9,10.5-2.9c0.3-0.1,0.7-0.1,1-0.2
			c2.5-0.7,4.9-1.5,7.3-2.2c0.6-0.1,1.2-0.4,1.8-0.5C26.8,22.8,26.4,22.8,26.4,22.5z"/>
		<path class="st41" d="M17.5,25.8C17.5,25.8,17.5,25.8,17.5,25.8c-0.2,0.1-0.2,0-0.3,0c-0.1-0.2-0.3-0.3-0.5-0.5
			c-0.1-0.1-0.2-0.2-0.3-0.3c-0.2-0.4-0.5-0.7-0.7-0.9c-0.2-0.2-0.3-0.3-0.2-0.6c-0.1-0.2-0.1-0.3-0.3-0.4c-0.2,0-0.4,0-0.4-0.3
			c0-0.1-0.1-0.3-0.3-0.2c-0.2,0-0.3-0.1-0.5-0.3c-0.9-1-1.8-2-2.7-3c-0.4,0.1-0.7,0.1-1.1,0.2c-0.5,0.2-1.1,0.4-1.7,0.5
			c0.1,0,0.1,0.1,0.1,0.2c0,0.3-0.1,0.5-0.3,0.8c-0.3,0.3-0.3,0.4,0.1,0.6c0.2,0.1,0.2,0.2,0,0.4C8.2,22,7.9,22,7.9,22.1
			c-0.1,0.5-0.5,0.4-0.9,0.4c-0.2,0-0.2,0-0.2,0.2c0,0.2,0,0.5-0.3,0.5c-0.4,0-0.4,0.2-0.5,0.5C6,24,6,24.3,5.8,24.1
			C5.7,24,5.6,23.9,5.5,24c-0.1,0.1-0.2,0.3,0,0.4c0.2,0.3,0.1,0.4-0.1,0.5C5.2,25,5,25,5.1,25.2c0.2,0.3,0.2,0.6,0.3,0.9
			c0,0.1,0.1,0.2-0.1,0.2c-0.1,0-0.1-0.1-0.2-0.2c0-0.1-0.1-0.3-0.2-0.2c-0.1,0-0.1,0.2,0,0.3c0.2,0.4-0.1,0.9,0.5,1.1
			c0,0,0.1,0.1,0.1,0.2c0.1,0.1,0.2,0.2,0.1,0.3c-0.1,0.1-0.2,0-0.3-0.1c0,0-0.1-0.1-0.2-0.1c-0.1,0.1-0.1,0.1,0,0.2
			c0.2,0.2-0.2,0.3-0.1,0.5c0.1,0.1,0.4-0.1,0.6,0.1c0,0,0.1,0,0.1,0.1c0.1,0.1,0.2,0.2,0,0.4C5.6,29,5.3,29,5.2,29.2l0,0.1
			c0.1,0,0.2-0.1,0.3-0.1c1.9-0.5,3.9-1,5.8-1.6c2.1-0.6,4.3-1.2,6.4-1.8C17.7,25.8,17.6,25.8,17.5,25.8z"/>
		<path class="st42" d="M2.6,24.5c0.5,1,1.1,2,1.6,3c0.1,0.1,0.2,0.3,0.2,0.4c0.2,0.1,0.3,0.4,0.3,0.6C4.9,28.7,5,29,5.1,29.2
			c-0.2,0.1-0.2-0.1-0.2-0.1c-0.3-0.6-0.7-1.3-1-1.9c-0.4-0.8-0.8-1.6-1.2-2.4C2.6,24.7,2.5,24.6,2.6,24.5z"/>
		<path class="st41" d="M4.8,28.5c-0.1-0.2-0.2-0.4-0.3-0.6c0.2-0.1,0.4-0.2,0.3,0.2C4.8,28.2,5.1,28.3,4.8,28.5z"/>
		<path class="st41" d="M4.8,24.3C5,24.3,5,24.5,5.1,24.6c0,0.1,0,0.1-0.1,0.1c-0.1-0.1-0.2-0.2-0.2-0.3C4.7,24.4,4.8,24.3,4.8,24.3
			z"/>
		<path class="st32" d="M16.9,19.9c-0.1,0.1-0.1,0.1-0.2,0.2c0,0.1-0.1,0.2-0.2,0.2c-0.7,0.4-1.4,0.7-2.1,1.2
			c-0.1,0.1-0.3,0.1-0.4,0.1c-0.3-0.3-0.3-0.3,0.2-0.6C14.1,21,14,21,13.9,21.1c-0.1,0-0.2,0.1-0.3,0c-0.1-0.1-0.1-0.2,0-0.3
			c0.3-0.3,0.7-0.4,1.1-0.6c0.1,0,0.2-0.1,0.3,0c0.4-0.1,0.6-0.3,1-0.4C16.3,19.7,16.6,19.6,16.9,19.9z"/>
		<path class="st43" d="M15,20.2c-0.1,0-0.2,0.1-0.3,0.1c0-0.3,0.3-0.4,0.4-0.5c0.1-0.1,0.2-0.2,0.1-0.3c-0.1-0.2-0.2-0.1-0.4,0
			c-0.5,0.3-1.2,0.4-1.6,1c-0.1,0.1-0.2,0.1-0.4,0.1c0,0,0,0-0.1,0c-0.1-0.2-0.2-0.3-0.3-0.5c0.9-0.5,1.9-0.5,2.8-1
			c0.2-0.1,0.3-0.1,0.4,0.1c0.1,0.2,0,0.3-0.1,0.4C15.4,19.7,15.2,20,15,20.2z"/>
		<path class="st44" d="M21.5,13.8c0.9,0.3,1.6,0.9,2.4,1.3c1.1,0.7,2.2,1.4,3.3,2.1c0.2,0.1,0.3,0.2,0.4,0.5
			c-0.3-0.1-0.5-0.2-0.7-0.2c0,0,0,0,0,0c-0.7-0.3-1.4-0.7-2.3-0.8c-0.2,0-0.5,0-0.7-0.1c-0.9-0.3-1.7-0.3-2.6,0.2
			c-0.1,0.1-0.3,0.2-0.5,0.1c0.8-0.7,1.7-0.9,2.7-0.6c0.4,0.1,0.7,0,1.1,0.2c0.1,0.1,0.2,0,0.3-0.1c0.1-0.1-0.1-0.2-0.2-0.2
			c-0.7-0.6-1.6-1-2.4-1.5C22.1,14.3,21.7,14.3,21.5,13.8z"/>
		<path class="st41" d="M17.8,21.8c0.1,0.1,0.4,0,0.4,0.2c0,0.2-0.2,0.3-0.3,0.3c-0.7,0.3-1.3,0.7-2.1,0.7c-0.3,0-0.4-0.2-0.6-0.2
			c-0.4,0-0.5-0.4-0.7-0.6c-0.1-0.1,0.1-0.2,0.2-0.3c0.2-0.1,0.4,0,0.6-0.2c0.4-0.2,0.7-0.4,1.1-0.5c0.1,0,0.3-0.1,0.4,0
			c0.1,0,0.3-0.1,0.4-0.1c0.1,0,0.2,0,0.3,0.1c-0.2,0.4-0.6,0.5-1,0.8c-0.3,0.2-0.7,0.4-1,0.6c0.7-0.2,1.2-0.5,1.9-0.8
			C17.5,21.8,17.7,21.7,17.8,21.8z"/>
		<path class="st31" d="M20.9,16.8c0.2,0,0.3-0.1,0.4-0.2c0.9-0.5,1.8-0.5,2.7-0.2c-0.2,0.2-0.5,0.1-0.8,0.1
			c-0.8-0.1-1.5,0.2-2.1,0.6c-0.9,0.6-1.5,1.6-2.2,2.4c-0.1,0.1-0.2,0.3-0.3,0.4c-0.2,0.2-0.3,0.5,0,0.7c0.1,0,0.1,0.1,0.1,0.2
			c0,0-0.1,0-0.1,0c-0.1,0-0.3,0-0.4,0c-0.2,0-0.4-0.2-0.4-0.4c-0.1-0.2,0.1-0.3,0.3-0.5c0.1-0.1,0.1-0.1,0.2-0.2
			c0.1-0.1,0.1-0.2,0.1-0.3c-0.1-0.5,0.3-0.8,0.6-1l0,0c0.4-0.4,0.8-0.9,1.3-1.2C20.4,17.1,20.7,17,20.9,16.8z"/>
		<path class="st45" d="M16.8,21.3c-0.5,0.2-1,0.4-1.5,0.6c-0.2,0.1-0.4,0.1-0.6,0.2c-0.2,0.1-0.3,0-0.4-0.1
			c-0.1-0.2-0.1-0.3,0.1-0.4c0.6-0.3,1.3-0.6,1.9-0.9c0.1-0.1,0.3-0.1,0.4-0.1c0.2,0,0.6-0.3,0.7,0.1C17.4,21,17.1,21.1,16.8,21.3
			C16.8,21.2,16.8,21.3,16.8,21.3z"/>
		<path class="st46" d="M17.8,21.8c-0.8,0.3-1.5,0.6-2.3,0.9c-0.1,0-0.1,0.1-0.2,0.1c-0.1,0-0.2,0-0.2,0c0-0.1,0.1-0.1,0.1-0.2
			c0.7-0.4,1.5-0.8,2.2-1.3c0.3-0.1,0.7-0.3,1-0.4c0,0,0.1,0,0.1,0c0.3,0,0.6-0.2,0.8,0.1C19,21.3,18.4,21.5,17.8,21.8z"/>
		<path class="st47" d="M16.6,20.6c-0.7,0.4-1.4,0.8-2.2,1c-0.1,0-0.2,0.1-0.3,0.2c-0.1,0.1-0.2,0-0.3-0.1c-0.1-0.1-0.1-0.2,0.1-0.2
			c0.8-0.3,1.5-0.8,2.3-1.2c0.2-0.1,0.3-0.2,0.5-0.3c0.1,0,0.2-0.1,0.3,0C17,20.2,16.8,20.4,16.6,20.6z"/>
		<path class="st44" d="M19,18.5c-0.1,0.1-0.1,0.2-0.2,0.3c-0.2,0.2-0.4,0.4-0.3,0.7c0,0.1,0,0.3-0.2,0.4c0-0.2,0-0.3,0-0.5
			c-0.2-0.1-0.3,0.2-0.6,0.1C18.2,19.2,18.5,18.8,19,18.5z"/>
		<path class="st44" d="M18.6,20.9C18.6,20.9,18.6,20.9,18.6,20.9c-0.2,0-0.3,0-0.4,0c-0.3,0-0.5-0.2-0.6-0.4
			c-0.1-0.2,0.2-0.4,0.4-0.5c-0.1,0.2-0.3,0.3-0.2,0.5C18,20.9,18.3,20.8,18.6,20.9C18.7,20.9,18.7,20.9,18.6,20.9
			C18.7,20.9,18.6,20.9,18.6,20.9z"/>
		<path class="st44" d="M20.2,17.3c-0.4,0.4-0.8,0.8-1.3,1.2C19.3,18,19.7,17.6,20.2,17.3z"/>
		<path class="st48" d="M13.9,21.5c-0.1,0.2,0,0.3,0.2,0.2c0.1,0,0.2-0.1,0.3-0.1c-0.1,0.1-0.2,0.1-0.1,0.3c0.1,0.1,0.2,0.2,0.4,0.2
			c0.2-0.1,0.4-0.1,0.6-0.1c-0.1,0.2-0.4,0.1-0.6,0.2c-0.2,0.1-0.2,0.1-0.1,0.3c0.2,0.2,0.3,0.3,0.5,0.5c0,0.1,0,0.1,0.1,0.2
			c-0.1,0.1-0.2,0.3-0.4,0.1c-0.1-0.1-0.3-0.2-0.2-0.4c0.1-0.1-0.1-0.2-0.2-0.2c-0.2,0.3-0.3,0-0.4-0.1c-0.9-1-1.8-2-2.7-3
			c-0.1-0.1-0.1-0.2-0.1-0.3c0.1-0.1,0.2-0.1,0.3-0.2c0,0.1-0.1,0.2,0,0.3c0.4,0.4,0.7,0.9,1.1,1.3c0.1,0.1,0.1,0,0.1-0.1
			c0,0,0,0,0,0c0.3,0.1,0.5,0.4,0.8,0.4c-0.1,0.2-0.1,0.3,0.2,0.2c0.2-0.1,0.4-0.2,0.7-0.3C14.4,21,14.2,21,14,21.1
			C13.8,21.2,13.8,21.3,13.9,21.5z"/>
		<path class="st49" d="M18.7,20.8c-0.1-0.1-0.2-0.1-0.3-0.2c-0.2-0.2-0.2-0.3-0.1-0.5c0.5-0.6,0.9-1.2,1.4-1.8
			c0.7-0.9,1.6-1.6,2.8-1.9c0.5-0.1,0.9,0.1,1.4,0c0.2,0.1,0.5,0.2,0.7,0.2c0.1,0.1,0.4,0,0.3,0.2c-0.4,0-0.8-0.1-1.1-0.1
			c-0.3-0.1-0.6,0-0.9,0.2c-0.6,0.5-1.4,1-1.8,1.6c-0.4,0.7-1.2,1-1.6,1.7c-0.1,0.2-0.2,0.4,0,0.6c0.2,0.2,0.2,0.2-0.1,0.3
			c-0.1-0.2-0.3-0.1-0.5-0.1C19,20.9,18.9,20.9,18.7,20.8z"/>
		<path class="st50" d="M18.3,25c-0.2,0.1-0.4,0.2-0.6,0.3c-0.5,0.1-0.9-0.1-1.1-0.6c-0.2-0.3,0.1-0.3,0.3-0.3
			c0.5-0.1,0.9-0.3,1.4-0.4c0.3-0.1,0.6-0.1,0.9-0.2c0.1-0.1,0.3-0.1,0.2-0.3c-0.1-0.2-0.2-0.1-0.3-0.1c-0.1,0-0.2,0-0.3,0.1
			c-0.1,0-0.2,0.1-0.3,0c0.2-0.3,0.7-0.5,1.1-0.4c0.3,0.1,0.6,0.2,0.8,0.4c0.1,0.1,0.1,0.2,0,0.3C20.2,23.8,20,24,19.7,24
			c-0.7,0.1-1.4,0.4-2.1,0.7C17.8,25,18.2,24.7,18.3,25z"/>
		<path class="st51" d="M18.3,24.1c-0.5,0.2-0.9,0.4-1.4,0.5c-0.1-0.2-0.5,0-0.5-0.3c0.2-0.4,0.6-0.4,0.9-0.6c0.1,0,0.2,0,0.2-0.1
			c0.3,0,0.6-0.3,0.9-0.3c0.1,0,0.2,0,0.2-0.1c0.1-0.1,0.2,0,0.2,0c0.1,0,0.3,0,0.3,0.2c0,0.2-0.1,0.3-0.2,0.4
			C18.8,23.9,18.6,24,18.3,24.1z"/>
		<path class="st52" d="M16.4,24.3c0.1,0.2,0.4,0.1,0.5,0.3c-0.1,0-0.2,0-0.3,0c0.3,0.4,0.6,0.7,1.1,0.8c-0.1,0.1-0.2,0.2-0.3,0.3
			c-0.1,0.1,0,0.1,0.1,0.1c0,0-0.1,0.1-0.1,0.1c-0.3-0.3-0.8-0.4-1-0.9c-0.2-0.5-0.7-0.8-1-1.2c0,0,0-0.1-0.1-0.1
			c0.1-0.1,0.2-0.1,0.3-0.2c0,0,0,0,0.1,0c0.1,0,0.2,0,0.3,0c0.1,0,0.2,0,0.2,0.1C16,23.9,16.3,24.1,16.4,24.3z"/>
		<path class="st50" d="M16.4,24.3c-0.2,0-0.3-0.1-0.4-0.2c-0.2-0.2-0.1-0.3,0.1-0.4c0.1-0.3,0.4-0.3,0.6-0.4
			c0.4-0.2,0.9-0.3,1.3-0.5c0.1,0,0.2-0.1,0.3,0c-0.1,0.4-0.5,0.5-0.8,0.6c-0.2,0.1-0.2,0.1,0,0.2c-0.2,0.2-0.5,0.3-0.8,0.4
			C16.6,24.1,16.5,24.1,16.4,24.3z"/>
		<path class="st53" d="M18.3,22.8c-0.5,0.1-0.9,0.4-1.4,0.5c-0.3,0.1-0.6,0.2-0.9,0.3c-0.1,0-0.2,0-0.2-0.1c0-0.2,0.2-0.1,0.3-0.2
			c0.8-0.3,1.6-0.6,2.5-0.7C18.5,22.7,18.4,22.8,18.3,22.8z"/>
		<path class="st31" d="M25,16.8c0-0.2-0.2-0.1-0.3-0.2c0.5,0,0.9,0.3,1.4,0.5c0.3,0.1,0.7,0.1,0.9,0.4c-0.6-0.1-1.1-0.4-1.6-0.6
			C25.2,16.9,25.1,16.8,25,16.8z"/>
		<path class="st41" d="M16.2,23.3c-0.1,0.1-0.2,0.2-0.3,0.2c-0.1,0.1-0.2,0-0.2-0.1C15.8,23.3,16,23.3,16.2,23.3z"/>
		<path class="st29" d="M18.7,20.8c0.3,0.1,0.6-0.2,0.9,0.2c0,0,0,0-0.1,0C19.2,20.8,18.9,21,18.7,20.8
			C18.6,20.9,18.6,20.9,18.7,20.8C18.7,20.8,18.7,20.8,18.7,20.8z"/>
		<path class="st17" d="M26.2,20.5c0,0.3-0.1,0.4-0.4,0.3C25.9,20.7,26.1,20.6,26.2,20.5z"/>
		<path class="st54" d="M30.9,22.7c-0.3,0-0.5-0.1-0.8-0.1c-0.1,0-0.3-0.1-0.3,0.2c-0.2-0.3-0.5-0.5-0.8-0.7c-0.1,0-0.1-0.1-0.1-0.2
			c0-0.1,0.1-0.1,0.2-0.1C29.8,21.9,30.5,22,30.9,22.7z"/>
		<path class="st55" d="M26.4,22.5c0.2,0.2,0.5,0.3,0.8,0.6c-0.8,0.2-1.4,0.4-2.1,0.6c-0.2-0.1-0.4,0.1-0.6,0.1
			c-1,0.3-2.1,0.6-3.1,0.9c-0.1,0-0.3,0.1-0.4,0c0.7-0.3,1.4-0.5,2.1-0.9c0.9-0.5,1.9-0.9,2.9-1.4c0.1-0.1,0.2-0.1,0.4,0
			C26.3,22.4,26.4,22.5,26.4,22.5z"/>
		<path class="st56" d="M21,24.7c0.8-0.1,1.5-0.4,2.3-0.6c0.5-0.2,1.1-0.3,1.6-0.5c0.1,0,0.2,0,0.3,0.1c-2.4,0.7-4.8,1.4-7.2,2.1
			c-0.1,0-0.1,0-0.2,0c-0.1,0-0.1-0.1-0.2-0.1C18.7,25.4,19.8,25.1,21,24.7z"/>
		<path class="st57" d="M26.3,22.4c-1,0.5-2,0.9-2.9,1.4c-0.1,0-0.2,0.1-0.3,0.1c0.3-0.3,0.7-0.4,1-0.6c0.5-0.3,1-0.6,1.6-0.9
			c0.1-0.1,0.3-0.1,0.4-0.1C26.2,22.3,26.2,22.3,26.3,22.4z"/>
		<path class="st40" d="M26.1,22.3c-0.6,0.3-1.1,0.6-1.7,0.9c-0.1,0.1-0.2,0.1-0.3,0.1c0.5-0.5,1.1-0.7,1.7-1.1
			C25.9,22.1,26,22.1,26.1,22.3z"/>
		<path class="st58" d="M13.6,20.8c-0.2,0.1-0.4,0.1-0.6-0.2c0-0.1-0.1-0.1-0.2-0.2c0.4-0.1,0.5-0.6,1-0.7c0.4-0.1,0.8-0.3,1.2-0.5
			c0.2-0.1,0.3-0.1,0.4,0c0.1,0.2,0,0.3-0.1,0.4c-0.2,0.2-0.4,0.4-0.6,0.6C14.3,20.5,14,20.6,13.6,20.8z"/>
		<path class="st59" d="M18.3,24.1c0.2-0.1,0.3-0.2,0.5-0.3c0.1-0.1,0.4-0.1,0.3-0.3c-0.1-0.2-0.3-0.2-0.4-0.2c0,0,0,0,0,0
			c0.3-0.1,0.7-0.2,0.8,0.2c0.1,0.3-0.3,0.4-0.6,0.5C18.8,24,18.5,24.1,18.3,24.1z"/>
	</g>
</g>
</svg>
